<svg xmlns="http://www.w3.org/2000/svg" xmlns:svg="http://www.w3.org/2000/svg" id="svg132" width="100%" height="100%" x="0%" y="0%" enable-background="new 0 0 320 180" version="1.1" viewBox="0 0 320 180" xml:space="preserve"><metadata id="metadata136"/><defs id="defs100"><pattern id="Strips1_1" width="2" height="1" patternTransform="translate(0,0) scale(10,10)" patternUnits="userSpaceOnUse"><rect style="fill:#000;stroke:none" id="rect5436" width="1" height="2" x="0" y="-.5"/></pattern><filter id="filter4716" width="1.015" height="1.059" x="-.008" y="-.029" style="color-interpolation-filters:sRGB"><feGaussianBlur id="feGaussianBlur4718" stdDeviation=".484"/></filter><filter id="filter1098" style="color-interpolation-filters:sRGB" width="1.033" height="1" x="0" y="0"><feFlood id="feFlood1088" flood-color="#000" flood-opacity=".498" result="flood"/><feComposite id="feComposite1090" in="flood" in2="SourceGraphic" operator="in" result="composite1"/><feGaussianBlur id="feGaussianBlur1092" in="composite1" result="blur" stdDeviation=".015"/><feOffset id="feOffset1094" dx="6" dy="0" result="offset"/><feComposite id="feComposite1096" in="SourceGraphic" in2="offset" operator="over" result="composite2"/></filter><clipPath id="clipPath976" clipPathUnits="userSpaceOnUse"><rect style="opacity:1;fill:#dcaf74;fill-opacity:1;fill-rule:nonzero;stroke:none;stroke-width:0;stroke-miterlimit:4;stroke-dasharray:none" id="rect978" width="320" height="180" x="0" y="0"/></clipPath><filter id="filter520-2" style="color-interpolation-filters:sRGB" width="1.216" height="1.216" x="-.108" y="-.108"><feFlood id="feFlood510-6" flood-color="#000" flood-opacity=".498" result="flood"/><feComposite id="feComposite512-1" in="flood" in2="SourceGraphic" operator="in" result="composite1"/><feGaussianBlur id="feGaussianBlur514-7" in="composite1" result="blur" stdDeviation="4.403"/><feOffset id="feOffset516-6" dx="0" dy="0" result="offset"/><feComposite id="feComposite518-5" in="SourceGraphic" in2="offset" operator="over" result="composite2"/></filter></defs><g id="layer3" style="display:inline"><path id="path102" fill="#CCC" fill-opacity="1" fill-rule="nonzero" stroke="#000" stroke-linecap="square" stroke-linejoin="miter" stroke-opacity="1" stroke-width="0" d="M 1e-5,0 H 320 V 180 H 1e-5 Z" style="mix-blend-mode:normal;fill:#dcaf74;fill-opacity:1"/><g id="g966" clip-path="url(#clipPath976)" style="fill:#090503;fill-opacity:1" transform="scale(1.0017899,1)"><ellipse id="path173" cx="-4.255" cy="90.204" rx="92.021" ry="90.16" transform="matrix(-1.1188057,0,0,1.2084826,-19.555624,-19.010568)" style="opacity:1;mix-blend-mode:normal;fill:#090503;fill-opacity:1;fill-rule:nonzero;stroke-width:0;stroke-miterlimit:4;stroke-dasharray:none;filter:url(#filter1098)"/></g></g><g id="layer2" style="display:inline"><path style="fill:#090503;fill-opacity:1;stroke-width:0;stroke-miterlimit:4;stroke-dasharray:none;filter:url(#filter520-2)" id="path124" fill="#393939" fill-opacity="1" fill-rule="nonzero" stroke="#393939" stroke-linecap="square" stroke-linejoin="miter" stroke-opacity="1" stroke-width=".72" d="m 76.597799,42.5678 c 27.080001,0 49.030001,21.86 49.030001,48.82 0,26.96 -21.95,48.82 -49.030001,48.82 -27.08,0 -49.03,-21.86 -49.03,-48.82 0,-26.96 21.95,-48.82 49.03,-48.82 z" transform="matrix(1.0067477,0,0,1.0103088,-0.11473392,-2.3299051)"/><path id="path560" style="font-size:40px;line-height:1.25;font-family:'Tengwar Telcontar';-inkscape-font-specification:'Tengwar Telcontar';display:inline;fill:#dcaf74;fill-opacity:1;stroke-width:1.8725" d="m 74.44611,68.310813 c -0.1219,0.95088 -0.661982,3.405389 -0.978934,4.892663 -0.292576,1.487272 -1.005354,3.55323 -1.517363,5.576895 -0.487629,1.999287 -1.182502,4.230201 -2.084617,6.692735 -0.902115,2.462534 -1.938329,4.99822 -3.108637,7.607044 -1.170312,2.584439 -2.669774,5.363941 -4.498384,8.33849 -1.804228,2.95016 -3.791322,5.79062 -5.961272,8.52135 -0.975257,1.21908 -1.987091,2.36501 -3.035494,3.4378 -2.616647,2.72934 -4.462781,4.39912 -8.481057,7.80335 -1.451898,1.54931 3.159684,-0.18277 4.144129,-0.65257 2.279555,-1.08786 2.677842,-1.33397 4.631464,-2.67117 1.808013,-1.39194 3.496683,-3.0411 4.313564,-3.82131 0.902115,-0.85335 2.316242,-2.46254 4.242377,-4.82755 4.364281,-2.16995 13.900918,-3.89979 18.943744,-3.75805 8.081639,0.20708 11.411152,2.00833 13.912578,6.8999 0.560776,1.26784 1.241176,2.72192 1.850713,4.0629 0.633919,1.34099 1.389742,2.57226 2.267477,3.69382 0.90211,1.14592 1.743272,1.71889 2.523482,1.71889 0.75583,0 1.79204,-0.37791 3.10864,-1.13374 1.3166,-0.73145 2.47472,-1.54823 3.47436,-2.45034 1.02402,-0.87774 1.30712,-1.39304 1.30712,-1.80754 0,-0.12192 -0.0366,-0.20725 -0.10971,-0.256 -0.0487,-0.0487 -0.13409,-0.061 -0.256,-0.0366 -0.0975,0 -0.20723,0.0122 -0.32916,0.0366 -0.12191,0.0244 -0.0271,-0.0699 -0.17339,-0.0211 -0.1219,0.0244 -0.23161,0.0366 -0.32915,0.0366 -1.17031,0 -2.66977,-1.42632 -4.49838,-4.27896 -1.80423,-2.87703 -3.71818,-6.55865 -5.741839,-11.04484 C 96.063091,96.383849 94.063806,91.800107 92.064528,87.118854 90.089631,82.437603 87.849243,77.984669 85.801201,73.49847 83.753161,69.012271 82.058642,65.757325 80.717664,63.733659 79.56564,61.964477 76.948301,56.801422 75.879054,58.519004 75.3177,62.621063 75.3883,62.447872 74.44611,68.310816 Z m 4.45243,7.763121 c -0.112893,0.188162 2.157764,4.169254 5.814984,12.507733 3.657217,8.338482 5.485831,12.641833 5.485831,12.910023 l -0.07314,0.0366 c -0.07314,0 -0.438865,-0.061 -1.097166,-0.18286 -0.658301,-0.1463 -1.560416,-0.29257 -2.706345,-0.43887 -1.145928,-0.1463 -2.352814,-0.21943 -3.620648,-0.21943 -5.729643,0 -11.520255,1.42632 -17.371804,4.27896 1.974897,-2.68197 3.779131,-5.510232 5.412688,-8.48478 1.657939,-2.974544 2.950161,-5.619948 3.876654,-7.936193 0.950879,-2.316245 1.743277,-4.449635 2.377196,-6.400157 0.658297,-1.950523 1.121547,-3.449989 1.389743,-4.498396 0.292581,-1.048403 0.5371,-1.614419 0.512012,-1.572608 z"/></g><g id="layer4" style="display:inline"><text id="text6156" x="135.24" y="120.069" style="font-style:normal;font-variant:normal;font-weight:700;font-stretch:normal;font-size:40px;line-height:1.25;font-family:'Helvetica Neue';-inkscape-font-specification:'Helvetica Neue, Bold';font-variant-ligatures:normal;font-variant-position:normal;font-variant-caps:normal;font-variant-numeric:normal;font-variant-alternates:normal;font-variant-east-asian:normal;text-indent:0;text-align:start;text-decoration:none;text-decoration-line:none;text-decoration-style:solid;text-decoration-color:#000;letter-spacing:0;word-spacing:0;text-transform:none;writing-mode:lr-tb;direction:ltr;text-orientation:mixed;dominant-baseline:auto;baseline-shift:baseline;text-anchor:start;white-space:normal;shape-padding:0;opacity:1;vector-effect:none;fill:#090503;fill-opacity:1;stroke:#1f1f2c;stroke-width:0;stroke-linecap:butt;stroke-linejoin:miter;stroke-miterlimit:4;stroke-dasharray:none;stroke-dashoffset:0;stroke-opacity:1" xml:space="preserve"><tspan id="tspan6154" x="135.24" y="120.069" style="font-style:normal;font-variant:normal;font-weight:700;font-stretch:normal;font-size:40px;font-family:'Helvetica Neue';-inkscape-font-specification:'Helvetica Neue, Bold';font-variant-ligatures:normal;font-variant-caps:normal;font-variant-numeric:normal;font-variant-east-asian:normal;fill:#090503;fill-opacity:1;stroke-width:0;stroke-miterlimit:4;stroke-dasharray:none">Manager</tspan></text><text id="text6156-4" x="138.24" y="80.691" style="font-style:normal;font-variant:normal;font-weight:400;font-stretch:normal;font-size:40px;line-height:1.25;font-family:'Helvetica Neue';-inkscape-font-specification:'Helvetica Neue, Normal';font-variant-ligatures:normal;font-variant-position:normal;font-variant-caps:normal;font-variant-numeric:normal;font-variant-alternates:normal;font-variant-east-asian:normal;text-indent:0;text-align:start;text-decoration:none;text-decoration-line:none;text-decoration-style:solid;text-decoration-color:#000;letter-spacing:0;word-spacing:0;text-transform:none;writing-mode:lr-tb;direction:ltr;text-orientation:mixed;dominant-baseline:auto;baseline-shift:baseline;text-anchor:start;white-space:normal;shape-padding:0;opacity:1;vector-effect:none;fill:#090503;fill-opacity:1;stroke:#1f1f2c;stroke-width:0;stroke-linecap:butt;stroke-linejoin:miter;stroke-miterlimit:4;stroke-dasharray:none;stroke-dashoffset:0;stroke-opacity:1" xml:space="preserve"><tspan id="tspan6154-1" x="138.24" y="80.691" style="font-style:normal;font-variant:normal;font-weight:400;font-stretch:normal;font-size:40px;font-family:'Helvetica Neue';-inkscape-font-specification:'Helvetica Neue, Normal';font-variant-ligatures:normal;font-variant-caps:normal;font-variant-numeric:normal;font-variant-east-asian:normal;fill:#090503;fill-opacity:1;stroke-width:0;stroke-miterlimit:4;stroke-dasharray:none">App</tspan></text></g></svg>